<svg width="128" height="128" viewBox="0 0 128 128" xmlns="http://www.w3.org/2000/svg">
  <defs>
    <!-- Dark background gradient -->
    <radialGradient id="bgGradient" cx="50%" cy="50%" r="50%">
      <stop offset="0%" style="stop-color:#1b0000;stop-opacity:1" />
      <stop offset="100%" style="stop-color:#000000;stop-opacity:1" />
    </radialGradient>
    
    <!-- Red neon glow effect -->
    <filter id="neonGlow">
      <feGaussianBlur stdDeviation="2" result="coloredBlur"/>
      <feMerge> 
        <feMergeNode in="coloredBlur"/>
        <feMergeNode in="SourceGraphic"/>
      </feMerge>
    </filter>
    
    <!-- Circuit pattern gradient -->
    <linearGradient id="circuitGradient" x1="0%" y1="0%" x2="100%" y2="100%">
      <stop offset="0%" style="stop-color:#e06c75;stop-opacity:0.9" />
      <stop offset="50%" style="stop-color:#c25656;stop-opacity:0.7" />
      <stop offset="100%" style="stop-color:#940000;stop-opacity:0.5" />
    </linearGradient>
  </defs>
  
  <!-- Background -->
  <rect width="128" height="128" fill="url(#bgGradient)" rx="16"/>
  
  <!-- Circuit board base pattern -->
  <g opacity="0.3">
    <!-- Horizontal circuit lines -->
    <line x1="20" y1="30" x2="108" y2="30" stroke="#240000" stroke-width="1"/>
    <line x1="20" y1="50" x2="108" y2="50" stroke="#240000" stroke-width="1"/>
    <line x1="20" y1="70" x2="108" y2="70" stroke="#240000" stroke-width="1"/>
    <line x1="20" y1="90" x2="108" y2="90" stroke="#240000" stroke-width="1"/>
    <line x1="20" y1="110" x2="108" y2="110" stroke="#240000" stroke-width="1"/>
    
    <!-- Vertical circuit lines -->
    <line x1="30" y1="20" x2="30" y2="108" stroke="#240000" stroke-width="1"/>
    <line x1="50" y1="20" x2="50" y2="108" stroke="#240000" stroke-width="1"/>
    <line x1="70" y1="20" x2="70" y2="108" stroke="#240000" stroke-width="1"/>
    <line x1="90" y1="20" x2="90" y2="108" stroke="#240000" stroke-width="1"/>
  </g>
  
  <!-- Main circuit pattern - glowing red lines -->
  <g filter="url(#neonGlow)" stroke="url(#circuitGradient)" stroke-width="2" fill="none">
    <!-- Central circuit grid -->
    <path d="M 32 32 L 48 32 L 48 48 L 64 48 L 64 32 L 80 32 L 80 48 L 96 48" stroke="#e06c75"/>
    <path d="M 32 48 L 48 48 L 48 64 L 32 64 L 32 80 L 48 80 L 48 96" stroke="#c25656"/>
    <path d="M 80 48 L 96 48 L 96 64 L 80 64 L 80 80 L 96 80 L 96 96" stroke="#e06c75"/>
    
    <!-- Diagonal connections -->
    <path d="M 40 40 L 56 56 L 72 40 L 88 56" stroke="#c25656" stroke-width="1.5"/>
    <path d="M 40 88 L 56 72 L 72 88 L 88 72" stroke="#e06c75" stroke-width="1.5"/>
  </g>
  
  <!-- Circuit nodes/connectors -->
  <g fill="#e06c75">
    <circle cx="32" cy="32" r="3" filter="url(#neonGlow)"/>
    <circle cx="48" cy="48" r="3" filter="url(#neonGlow)"/>
    <circle cx="64" cy="32" r="3" filter="url(#neonGlow)"/>
    <circle cx="80" cy="48" r="3" filter="url(#neonGlow)"/>
    <circle cx="96" cy="32" r="3" filter="url(#neonGlow)"/>
    <circle cx="32" cy="64" r="3" filter="url(#neonGlow)"/>
    <circle cx="48" cy="80" r="3" filter="url(#neonGlow)"/>
    <circle cx="80" cy="64" r="3" filter="url(#neonGlow)"/>
    <circle cx="96" cy="80" r="3" filter="url(#neonGlow)"/>
  </g>
  
  <!-- Corner accent elements -->
  <g fill="none" stroke="#940000" stroke-width="1" opacity="0.6">
    <rect x="8" y="8" width="16" height="16" rx="2"/>
    <rect x="104" y="8" width="16" height="16" rx="2"/>
    <rect x="8" y="104" width="16" height="16" rx="2"/>
    <rect x="104" y="104" width="16" height="16" rx="2"/>
  </g>
  
  <!-- Central geometric element -->
  <g fill="none" stroke="#e06c75" stroke-width="2" filter="url(#neonGlow)">
    <polygon points="64,20 76,32 64,44 52,32" opacity="0.8"/>
    <polygon points="64,84 76,96 64,108 52,96" opacity="0.8"/>
  </g>
  
  <!-- Subtle grid overlay -->
  <g opacity="0.1" stroke="#d1d1d1" stroke-width="0.5">
    <line x1="0" y1="32" x2="128" y2="32"/>
    <line x1="0" y1="64" x2="128" y2="64"/>
    <line x1="0" y1="96" x2="128" y2="96"/>
    <line x1="32" y1="0" x2="32" y2="128"/>
    <line x1="64" y1="0" x2="64" y2="128"/>
    <line x1="96" y1="0" x2="96" y2="128"/>
  </g>
</svg>
